<?xml version="1.0" standalone="no"?>
<!DOCTYPE svg PUBLIC "-//W3C//DTD SVG 20010904//EN"
 "http://www.w3.org/TR/2001/REC-SVG-20010904/DTD/svg10.dtd">
<svg version="1.0" xmlns="http://www.w3.org/2000/svg"
 width="1500.000000pt" height="1500.000000pt" viewBox="0 0 1500.000000 1500.000000"
 preserveAspectRatio="xMidYMid meet">

<g transform="translate(0.000000,1500.000000) scale(0.100000,-0.100000)"
fill="#ffffffff" stroke="none">
<path d="M7400 14743 c-124 -13 -280 -37 -370 -58 -58 -13 -161 -29 -230 -36
-138 -13 -159 -21 -362 -146 -226 -139 -602 -457 -794 -672 -132 -148 -162
-189 -88 -121 27 25 92 84 144 132 111 102 277 232 408 320 76 51 92 66 88 83
-7 29 -1 36 97 100 222 144 545 272 817 324 457 86 1031 52 1389 -82 96 -37
108 -26 20 19 -106 53 -326 104 -564 129 -126 13 -460 18 -555 8z"/>
<path d="M7755 14625 l-40 -12 70 -7 c39 -4 138 -17 221 -31 245 -39 557 -152
925 -334 267 -133 357 -192 569 -375 161 -138 160 -138 103 -68 -29 34 -74 82
-101 105 -27 23 -82 72 -123 108 -41 36 -91 78 -112 94 -51 38 -64 63 -43 83
13 13 20 13 43 4 27 -12 27 -11 -5 16 -19 15 -55 39 -80 52 -26 13 -76 42
-112 63 -36 21 -81 41 -100 44 -42 7 -40 4 37 -46 63 -40 119 -103 109 -120
-8 -13 -78 17 -178 76 -93 55 -106 68 -91 92 9 14 1 22 -61 56 -50 28 -84 40
-116 40 -25 1 -110 20 -190 43 -192 54 -355 87 -522 106 -75 9 -142 18 -150
20 -7 2 -31 -2 -53 -9z"/>
<path d="M6450 14587 c-284 -108 -699 -428 -986 -760 -265 -306 -526 -718
-644 -1017 -47 -119 -133 -199 -309 -290 -121 -63 -210 -130 -299 -225 -116
-124 -182 -235 -234 -388 -25 -76 -31 -113 -35 -212 -5 -107 -3 -125 16 -170
18 -41 21 -44 17 -18 -25 160 -9 307 52 462 50 126 114 222 221 331 133 135
270 217 436 260 91 25 93 27 126 135 30 100 134 326 204 447 97 166 265 422
334 508 184 229 475 525 618 627 109 78 297 192 438 265 83 43 146 78 140 77
-5 0 -48 -14 -95 -32z"/>
<path d="M9477 14032 c151 -130 291 -286 413 -461 120 -173 111 -164 139 -142
l23 18 -84 89 c-46 49 -110 123 -142 164 -128 167 -352 387 -438 431 -20 10
-40 19 -43 19 -3 0 57 -53 132 -118z"/>
<path d="M7054 14074 c-315 -70 -704 -227 -869 -352 -183 -138 -297 -249 -462
-448 -52 -63 -161 -241 -243 -399 -35 -66 -67 -126 -72 -132 -13 -17 -28 -7
-28 18 0 34 -16 20 -38 -34 -26 -61 -27 -71 -9 -64 21 8 40 -29 27 -53 -14
-27 -15 -26 33 -58 l42 -29 2 41 c1 22 16 76 32 120 23 61 27 82 19 96 -9 13
-7 27 5 57 56 141 385 558 543 690 113 94 259 189 329 214 32 11 74 34 93 50
44 39 93 59 175 71 55 9 65 13 56 24 -14 17 1 39 40 58 47 24 208 76 327 106
64 16 118 31 121 33 14 14 -35 10 -123 -9z"/>
<path d="M7639 14056 c-3 -3 -65 -10 -138 -16 -209 -17 -523 -83 -686 -144
l-40 -15 50 0 c28 -1 89 10 135 23 101 29 298 69 430 87 197 28 603 8 759 -37
30 -9 85 -31 122 -50 66 -33 68 -33 100 -17 29 14 42 15 108 4 175 -30 410
-118 570 -214 52 -32 96 -57 98 -57 13 0 -21 35 -72 76 -103 79 -306 169 -467
204 -404 90 -591 123 -805 140 -73 6 -139 13 -146 16 -7 2 -15 2 -18 0z"/>
<path d="M8467 13806 c22 -14 86 -42 141 -61 176 -61 351 -143 462 -216 48
-32 135 -120 180 -183 l15 -21 21 21 21 22 -20 31 c-25 41 -183 153 -315 225
-152 83 -410 185 -507 201 l-40 7 42 -26z"/>
<path d="M6199 13567 c-215 -166 -250 -201 -422 -422 -91 -116 -148 -198 -197
-279 l-23 -38 22 12 c12 6 37 32 54 57 201 290 333 441 537 613 119 101 160
140 144 140 -5 0 -57 -37 -115 -83z"/>
<path d="M10105 13350 c-14 -15 -26 -19 -43 -15 -21 5 -23 3 -17 -12 39 -95
96 -253 114 -318 36 -131 65 -213 76 -211 6 0 9 3 8 6 -1 3 -4 12 -8 21 -3 9
1 24 11 33 15 15 18 15 33 2 10 -9 28 -49 41 -90 23 -73 23 -73 42 -54 18 18
19 25 9 76 -12 60 -57 146 -71 137 -16 -10 -49 14 -66 47 -16 31 -16 32 10 55
23 20 26 28 21 56 -4 17 -16 46 -26 64 l-20 31 -24 -24 c-29 -28 -50 -23 -71
18 -22 42 -10 86 27 102 28 12 28 13 13 41 -26 52 -38 58 -59 35z"/>
<path d="M9343 13301 c-7 -11 -22 -21 -34 -23 -21 -3 -20 -5 13 -45 l35 -42
12 26 c9 20 17 24 36 21 l25 -5 -22 36 c-33 55 -47 61 -65 32z"/>
<path d="M5167 13193 c-86 -152 -118 -214 -115 -225 3 -7 26 28 53 78 27 49
66 117 87 152 41 67 43 72 29 72 -5 0 -29 -35 -54 -77z"/>
<path d="M9456 13186 c4 -17 0 -30 -13 -43 -19 -19 -19 -20 11 -65 97 -142
116 -172 116 -185 0 -7 29 -68 64 -136 109 -210 132 -304 143 -577 5 -127 2
-165 -21 -301 -35 -208 -46 -248 -90 -318 -42 -69 -53 -110 -36 -141 10 -19 9
-27 -7 -49 -11 -14 -29 -28 -40 -31 -25 -6 -63 -51 -92 -107 -18 -36 -19 -43
-6 -43 38 0 28 -49 -31 -148 -56 -93 -77 -104 -97 -53 l-11 29 -31 -41 c-18
-23 -50 -72 -73 -109 -132 -218 -364 -412 -687 -576 -49 -25 -85 -47 -78 -49
17 -6 421 196 513 255 80 52 250 198 303 260 18 20 71 81 119 135 49 54 106
128 127 165 124 209 238 615 281 1003 14 126 -5 296 -48 421 -13 38 -13 49 -3
62 23 28 41 17 65 -37 25 -55 48 -159 66 -289 8 -64 6 -104 -10 -225 -22 -163
-60 -353 -84 -423 -17 -50 -4 -83 14 -36 47 126 93 353 110 546 7 74 14 138
16 141 2 3 -3 58 -11 121 -10 79 -24 140 -45 194 -51 128 -156 323 -218 405
-122 162 -207 268 -215 268 -4 1 -5 -10 -1 -23z m198 -276 c92 -129 150 -244
136 -270 -22 -41 -51 -23 -94 61 -18 35 -52 98 -75 139 -53 94 -101 202 -95
212 8 13 54 -38 128 -142z"/>
<path d="M10349 12628 c-1 -7 -1 -16 0 -21 15 -91 17 -141 9 -192 -10 -63 -23
-89 -44 -81 -18 7 -22 -30 -11 -125 9 -87 -4 -426 -24 -589 -25 -212 -100
-537 -149 -647 -10 -24 -17 -43 -15 -43 8 0 66 101 80 140 27 75 73 267 99
411 13 75 34 155 46 179 12 23 28 63 35 88 12 38 12 48 -1 68 -12 17 -13 28
-5 42 11 21 38 35 51 27 8 -5 30 47 30 73 0 12 -3 12 -15 2 -23 -19 -56 0 -81
47 -20 36 -20 41 -7 87 13 44 17 48 40 43 23 -4 24 -2 19 22 -4 14 -14 67 -23
118 -16 90 -16 94 6 175 30 114 28 142 -9 168 -21 15 -30 18 -31 8z"/>
<path d="M5311 12492 c-12 -23 -5 -32 49 -64 155 -90 257 -195 329 -338 46
-92 58 -141 43 -175 -8 -17 -6 -37 8 -81 33 -109 43 -200 30 -266 -8 -41 -8
-64 -1 -71 7 -7 12 -1 16 19 15 65 22 79 41 79 13 0 23 -11 31 -35 12 -35 12
-34 12 26 1 72 -14 121 -46 151 -25 24 -28 35 -14 62 14 26 -4 95 -48 186 -22
44 -51 105 -65 135 -14 30 -49 85 -79 122 -30 37 -76 103 -103 147 -35 58 -53
79 -65 75 -9 -2 -39 7 -67 21 -60 30 -59 30 -71 7z"/>
<path d="M5270 12371 c0 -11 21 -31 58 -54 31 -19 100 -72 152 -116 52 -44 96
-78 99 -76 3 4 -65 97 -86 118 -5 4 -48 39 -98 77 -92 71 -125 85 -125 51z"/>
<path d="M4911 12183 c-119 -18 -184 -42 -274 -103 -82 -55 -120 -102 -178
-223 -58 -121 -73 -219 -57 -362 10 -90 18 -122 49 -185 43 -90 112 -164 189
-206 58 -30 65 -41 40 -56 -11 -7 -31 -2 -70 16 -139 66 -248 196 -296 353
-32 104 -51 94 -22 -11 40 -145 81 -213 172 -285 96 -76 179 -117 287 -140 91
-19 101 -20 184 -5 181 31 324 94 411 180 63 62 150 245 167 353 12 76 12 95
-4 180 -26 139 -61 224 -131 316 -85 112 -151 153 -294 180 -42 8 -76 14 -77
14 -1 -1 -44 -8 -96 -16z m86 -63 c31 -11 74 -31 95 -45 30 -20 38 -22 38 -10
0 9 11 20 25 27 36 16 77 -5 150 -78 73 -73 102 -134 86 -177 -14 -37 -31 -28
-87 49 -26 35 -68 81 -93 101 -70 56 -79 60 -45 23 96 -109 144 -198 144 -267
0 -13 4 -22 10 -18 13 8 35 -39 50 -106 11 -48 10 -64 -5 -114 -9 -33 -28 -81
-41 -107 -25 -49 -78 -92 -101 -83 -7 2 -18 -6 -24 -18 -7 -12 -42 -53 -78
-90 -53 -55 -60 -66 -38 -58 82 31 184 104 226 160 62 83 89 155 104 284 18
147 29 164 48 77 12 -55 -12 -204 -46 -277 -35 -77 -100 -157 -169 -210 -75
-57 -122 -78 -206 -93 -36 -6 -98 -19 -138 -27 -117 -25 -175 -8 -265 76 -160
149 -224 345 -184 559 42 220 180 372 387 426 74 20 91 19 157 -4z"/>
<path d="M5278 11570 c-16 -31 -28 -72 -28 -91 0 -19 -5 -51 -11 -72 -17 -61
-3 -54 30 16 36 75 55 155 44 184 -7 18 -12 13 -35 -37z"/>
<path d="M4182 12103 c-104 -173 -129 -266 -138 -526 -4 -108 -10 -200 -15
-203 -7 -4 14 -74 53 -174 l10 -25 9 23 c14 35 26 26 64 -45 19 -38 65 -103
101 -147 36 -43 63 -84 60 -91 -6 -18 17 -37 92 -74 62 -31 63 -31 47 -7 -15
23 -15 25 6 39 l21 15 -28 15 c-95 49 -151 105 -238 236 -100 151 -130 225
-152 381 -16 116 -10 186 28 335 21 83 82 224 117 274 23 32 26 41 12 41 -5 0
-27 -30 -49 -67z"/>
<path d="M4337 11888 c-50 -88 -90 -230 -82 -287 13 -88 22 -90 30 -6 10 121
31 211 65 283 17 36 28 67 26 69 -2 3 -20 -24 -39 -59z"/>
<path d="M5610 11842 c0 -5 6 -31 14 -58 8 -27 20 -69 26 -93 8 -29 15 -40 21
-34 11 11 -13 118 -37 165 -14 28 -24 36 -24 20z"/>
<path d="M5849 11420 c-22 -124 -80 -280 -135 -356 -49 -70 -125 -142 -200
-190 -57 -37 -169 -78 -190 -70 -30 12 -10 37 79 97 183 124 237 180 287 297
23 53 22 84 -1 40 -63 -119 -241 -271 -417 -356 -93 -45 -93 -46 -68 -59 31
-16 32 -27 6 -53 -40 -40 -94 -13 -71 37 11 25 11 25 -16 20 -15 -3 -76 -11
-135 -18 -101 -11 -210 -6 -333 17 l-30 6 33 -21 c27 -18 32 -25 22 -36 -10
-12 -7 -15 17 -20 15 -4 55 -15 88 -26 83 -26 131 -30 145 -14 6 8 27 19 46
25 29 10 39 9 59 -4 14 -9 25 -23 25 -31 0 -19 32 -12 121 29 41 18 91 37 112
40 70 13 222 78 284 122 163 116 298 370 291 547 l-3 72 -16 -95z"/>
<path d="M10114 11223 c-62 -179 -192 -447 -291 -598 -146 -222 -263 -351
-413 -458 -14 -9 4 -3 39 15 104 53 241 199 385 412 37 55 101 135 141 179 71
76 75 83 90 156 42 200 58 267 66 283 6 10 5 19 -1 23 -6 3 -13 -2 -16 -12z"/>
<path d="M4141 11036 c6 -13 25 -34 42 -47 29 -21 29 -20 -8 24 -22 26 -40 47
-42 47 -1 0 2 -11 8 -24z"/>
<path d="M3581 10832 c6 -17 21 -32 41 -40 26 -9 29 -15 23 -34 -3 -13 -11
-47 -16 -77 -12 -65 -17 -74 -35 -67 -19 7 -18 3 15 -57 29 -52 49 -127 54
-201 3 -48 13 -53 51 -22 l30 23 -27 89 c-15 49 -34 122 -43 162 -14 67 -14
75 0 97 9 14 23 25 31 25 26 0 25 18 -6 56 -32 41 -82 74 -111 74 -14 0 -15
-4 -7 -28z"/>
<path d="M8915 10655 c-169 -126 -320 -219 -410 -251 -37 -14 -129 -40 -204
-60 -175 -44 -330 -107 -551 -223 -42 -22 -106 -51 -144 -65 -37 -14 -78 -34
-91 -44 l-24 -19 25 -12 c37 -16 27 -42 -26 -68 -56 -28 -65 -28 -91 -2 -27
27 -47 17 -120 -59 -30 -31 -40 -45 -24 -31 37 33 92 61 99 51 2 -4 -22 -51
-55 -105 -32 -54 -59 -102 -59 -107 0 -21 16 -8 44 36 56 89 159 147 743 419
145 68 297 143 336 166 40 22 136 75 214 118 174 93 296 178 405 281 46 44 81
79 78 80 -3 0 -68 -47 -145 -105z m-541 -324 c14 -22 -69 -66 -334 -176 -249
-104 -426 -161 -446 -144 -21 17 -7 27 60 44 32 9 160 63 283 121 277 130 421
181 437 155z"/>
<path d="M10996 10748 c-89 -8 -288 -57 -356 -86 -25 -11 -53 -28 -62 -38 -13
-15 8 -11 111 23 170 56 288 76 441 77 116 0 130 -2 185 -27 32 -15 73 -38 90
-51 52 -39 62 -39 20 0 -92 85 -242 121 -429 102z"/>
<path d="M3780 10680 c0 -6 13 -23 30 -38 17 -16 79 -123 150 -260 118 -230
147 -277 264 -442 160 -226 442 -545 629 -715 127 -115 482 -400 623 -501 185
-132 389 -257 559 -345 230 -119 565 -263 750 -323 79 -25 263 -63 274 -57 19
12 29 55 19 83 -8 21 -20 30 -51 38 -72 19 -82 22 -94 32 -19 15 -16 26 11 43
22 15 30 14 102 -4 44 -10 80 -18 81 -17 1 1 6 109 12 241 14 307 28 526 42
641 7 63 7 99 -1 118 -7 21 -6 52 6 124 9 54 20 104 24 112 8 17 -23 100 -32
84 -3 -5 -16 -49 -28 -99 -12 -49 -26 -98 -31 -107 -13 -25 -40 -22 -47 5 -4
12 -10 -39 -13 -113 -4 -76 -14 -159 -23 -189 -23 -79 -24 -219 -2 -319 11
-45 20 -81 22 -79 2 2 -1 43 -7 93 -8 70 -7 122 6 242 17 158 34 222 60 222
39 0 41 -45 15 -315 -23 -227 -30 -261 -53 -259 -10 1 -17 1 -17 -1 0 -2 7
-37 16 -78 19 -92 11 -128 -44 -207 -46 -67 -84 -81 -165 -61 -59 14 -151 30
-154 26 -2 -1 7 -6 20 -12 115 -51 170 -94 147 -117 -22 -22 -85 -10 -173 32
-104 51 -127 81 -87 113 14 10 23 19 20 19 -3 0 -20 4 -38 9 -20 6 -30 6 -27
0 12 -18 -24 -20 -81 -4 -269 77 -581 246 -995 542 -266 189 -486 372 -820
683 -223 207 -539 601 -525 654 4 15 -13 39 -67 96 -54 56 -89 105 -135 190
-35 63 -78 136 -97 162 -35 48 -75 79 -75 58z"/>
<path d="M11126 10642 c-9 -15 0 -18 74 -32 36 -7 81 -22 101 -32 38 -21 91
-98 115 -168 22 -63 51 -208 59 -288 4 -39 11 -74 15 -77 5 -3 12 22 16 55 8
73 25 100 51 84 31 -19 38 -75 24 -187 -20 -163 -44 -218 -77 -173 -11 16 -13
15 -18 -11 -7 -30 -36 -259 -36 -280 0 -7 8 -13 17 -13 9 0 24 -7 33 -15 16
-15 18 -8 23 102 5 101 11 135 44 233 33 102 38 126 37 210 0 69 -6 111 -20
152 -20 54 -22 56 -38 40 -16 -16 -18 -16 -37 7 -23 28 -24 41 -4 67 15 19 15
19 36 -5 l20 -25 -5 25 c-3 13 -10 50 -16 82 -6 31 -15 55 -20 52 -4 -3 -32
14 -61 37 -122 100 -166 129 -212 143 -76 23 -114 28 -121 17z"/>
<path d="M10835 10605 c-49 -13 -144 -41 -210 -63 -78 -26 -126 -37 -136 -31
-12 6 -24 0 -45 -22 -40 -42 -125 -96 -191 -121 -52 -19 -54 -21 -34 -35 28
-19 26 -33 -9 -66 -27 -25 -38 -47 -26 -47 3 0 72 44 153 97 192 126 361 212
506 258 64 20 115 41 111 46 -7 12 -14 11 -119 -16z"/>
<path d="M9982 10205 c-51 -41 -97 -75 -101 -75 -26 0 -249 -170 -340 -260
-96 -95 -72 -91 41 7 108 94 240 194 320 242 44 26 168 62 168 49 0 -6 -10
-24 -22 -41 l-23 -32 30 23 c17 12 47 34 68 49 44 31 46 41 10 45 -22 2 -30
10 -38 36 -5 17 -12 32 -15 32 -3 0 -47 -34 -98 -75z"/>
<path d="M9320 10209 c-79 -59 -144 -90 -430 -205 -496 -200 -547 -221 -740
-317 -230 -114 -362 -207 -454 -320 -75 -93 -84 -111 -96 -199 -17 -117 -17
-113 7 -113 11 0 24 -3 28 -7 3 -3 11 -68 16 -145 10 -138 -3 -606 -21 -717
-7 -47 5 -116 21 -116 26 0 37 36 45 147 10 135 9 173 -5 448 -17 298 -3 442
43 463 22 10 24 8 29 -16 3 -15 11 -242 18 -504 7 -263 17 -478 22 -478 4 0
18 5 30 12 38 20 176 66 181 61 22 -22 -85 -109 -185 -151 -46 -20 -60 -36
-52 -59 6 -18 142 53 238 124 194 145 298 249 452 456 42 56 134 172 203 257
69 85 160 200 202 255 42 55 122 155 177 223 55 67 99 122 96 122 -14 0 -249
-274 -449 -524 -129 -161 -248 -304 -265 -319 -17 -14 -56 -41 -86 -59 -30
-18 -55 -39 -55 -47 0 -32 -159 -214 -222 -255 -21 -14 -31 -15 -47 -6 -12 6
-21 18 -21 26 0 9 39 54 86 102 84 83 77 88 -16 12 -25 -21 -55 -40 -67 -44
-35 -11 -112 14 -149 49 -31 30 -34 37 -34 91 0 33 11 113 24 178 21 108 22
117 5 95 l-18 -24 -10 26 c-41 109 -33 226 14 217 22 -5 23 -2 27 82 5 113 29
154 136 238 74 59 140 122 126 122 -3 0 -37 -19 -75 -41 -70 -42 -133 -97
-201 -178 -32 -37 -40 -42 -53 -31 -24 20 -18 44 28 106 76 103 295 238 375
232 18 -1 47 10 79 30 62 40 87 67 88 94 0 11 13 30 28 42 27 20 29 20 59 3
30 -17 32 -17 73 3 23 11 59 36 78 55 20 19 42 35 49 35 29 0 361 177 421 226
36 28 108 74 161 103 l97 52 -23 19 c-22 18 -22 19 -5 38 10 11 31 25 47 32
16 7 31 18 34 26 8 22 -5 16 -64 -27z m-156 -148 c21 -34 -247 -172 -784 -401
-358 -153 -518 -269 -624 -452 -29 -50 -43 -58 -53 -33 -9 26 25 100 80 171
55 72 191 180 335 267 43 26 224 113 402 193 179 80 355 158 391 174 76 34
218 88 236 89 6 1 14 -3 17 -8z"/>
<path d="M3684 10167 c6 -52 52 -144 134 -271 47 -71 86 -169 106 -262 6 -24
11 -31 25 -27 23 6 54 -33 80 -100 11 -29 63 -142 116 -252 113 -233 224 -481
337 -755 105 -255 432 -1078 514 -1295 36 -93 70 -181 76 -195 5 -14 39 -108
75 -210 64 -186 77 -211 157 -309 25 -30 70 -110 102 -178 31 -67 59 -122 60
-120 10 9 -68 242 -100 298 -53 96 -269 595 -457 1057 -292 715 -570 1371
-797 1878 -119 266 -147 321 -191 374 -76 92 -162 232 -213 349 l-29 66 5 -48z"/>
<path d="M10750 10111 c-154 -69 -354 -186 -470 -276 -155 -120 -297 -260
-580 -571 -47 -51 -112 -115 -144 -141 -72 -58 -67 -52 -218 -239 -212 -261
-460 -554 -590 -694 -173 -188 -560 -547 -615 -573 -23 -10 -31 -27 -15 -27 5
0 40 22 78 50 189 137 269 190 286 190 24 0 34 -26 17 -48 -7 -9 2 -3 20 13
18 17 51 64 73 105 55 100 123 185 161 203 18 8 70 20 117 26 47 7 93 14 102
17 10 3 91 103 181 222 90 119 223 293 295 387 73 93 132 176 132 185 0 8 -15
-3 -32 -25 -18 -22 -132 -148 -253 -280 -121 -132 -273 -300 -339 -373 -79
-89 -122 -130 -129 -123 -22 22 196 314 403 541 78 85 265 292 415 460 408
458 432 482 544 581 191 168 340 264 488 319 75 27 83 28 98 14 24 -24 15 -35
-62 -79 -95 -54 -185 -123 -333 -252 -201 -176 -290 -269 -484 -503 -152 -183
-794 -1046 -711 -955 79 85 223 269 446 565 290 385 381 494 593 705 166 166
369 335 455 379 53 28 163 66 189 66 l26 0 -22 16 c-29 20 -28 50 3 70 23 15
27 15 49 0 33 -21 42 -53 21 -76 -11 -12 -13 -20 -6 -25 41 -25 64 -141 40
-202 -11 -29 -52 -225 -63 -298 -5 -37 -4 -40 19 -41 14 -1 25 1 25 5 0 3 7
57 15 119 8 62 20 157 26 210 10 93 32 153 49 136 19 -20 29 -125 20 -202 -32
-247 -39 -317 -31 -325 5 -5 11 -1 15 9 13 45 59 306 76 438 11 80 20 148 21
153 2 4 -1 29 -5 54 -12 74 -66 146 -66 89 0 -25 -22 -26 -81 -4 -38 14 -145
43 -159 43 -3 0 -43 -17 -90 -38z"/>
<path d="M4236 10120 c11 -14 63 -74 114 -135 144 -171 309 -352 335 -369 21
-14 -101 134 -320 387 -33 39 -80 86 -105 106 -31 24 -38 28 -24 11z"/>
<path d="M9914 10027 c-124 -85 -197 -144 -347 -280 -71 -65 -135 -117 -143
-117 -8 0 -17 7 -20 15 -9 23 -15 19 -63 -36 -35 -40 -38 -48 -17 -34 16 11
31 14 36 9 11 -11 -47 -89 -240 -330 -75 -93 -167 -209 -205 -259 -38 -49
-114 -146 -170 -215 -112 -138 -276 -347 -289 -368 -14 -23 36 7 54 32 15 22
461 532 590 676 42 47 132 150 200 230 255 300 467 518 685 703 58 49 19 35
-71 -26z"/>
<path d="M7175 9745 c-15 -20 -45 -75 -68 -123 -35 -75 -41 -98 -44 -167 l-3
-80 16 69 c23 102 70 224 109 283 40 59 32 72 -10 18z"/>
<path d="M4050 9741 c0 -5 5 -13 10 -16 6 -3 10 -2 10 4 0 5 -4 13 -10 16 -5
3 -10 2 -10 -4z"/>
<path d="M3950 9500 c0 -48 23 -107 140 -361 205 -443 354 -799 757 -1813 174
-440 245 -597 285 -632 l21 -19 -21 40 c-27 54 -162 384 -262 640 -45 116 -88
224 -95 240 -7 17 -59 145 -115 285 -56 140 -107 269 -115 285 -7 17 -30 73
-50 125 -21 52 -45 113 -55 135 -10 22 -41 97 -70 165 -70 168 -155 359 -253
565 -44 94 -100 215 -123 270 -27 61 -44 90 -44 75z"/>
<path d="M10891 9258 c-6 -57 -13 -119 -15 -139 -4 -38 -57 -169 -125 -309
-29 -59 -41 -95 -40 -124 l1 -41 9 37 c14 61 69 195 84 208 27 22 29 -16 6
-130 -40 -198 -71 -257 -104 -195 -13 26 -14 24 -34 -57 -12 -46 -24 -92 -28
-103 -6 -17 -5 -17 9 3 20 25 33 21 47 -15 7 -18 2 -51 -17 -126 -42 -167 -75
-221 -103 -169 -7 14 -2 50 17 130 15 62 27 112 26 112 -16 0 -53 -102 -90
-246 -53 -208 -98 -354 -235 -771 -82 -246 -107 -312 -137 -352 -53 -70 -115
-119 -207 -162 -98 -46 -146 -80 -260 -184 -173 -158 -177 -162 -166 -182 7
-14 4 -35 -10 -78 -25 -77 -24 -90 12 -181 17 -42 36 -104 42 -138 11 -57 14
-61 40 -63 26 -2 28 1 23 25 -16 79 -17 104 -6 163 14 71 20 129 15 129 -2 0
-14 -27 -26 -60 -12 -33 -25 -57 -30 -55 -20 13 -20 95 0 176 41 164 113 269
246 358 90 60 156 86 262 101 l81 12 35 116 c19 65 93 297 165 517 72 220 143
444 158 497 31 112 45 131 69 95 25 -39 10 -93 -222 -805 -74 -227 -131 -417
-128 -422 14 -23 35 -8 46 33 98 370 309 1037 377 1192 49 114 160 606 231
1027 42 250 44 271 31 263 -6 -4 -17 -2 -24 4 -11 9 -16 -7 -25 -91z"/>
<path d="M11412 9295 c-5 -22 -22 -96 -37 -165 -15 -69 -42 -183 -62 -255 -19
-71 -41 -179 -49 -240 -14 -108 -38 -247 -50 -293 -6 -22 -5 -23 14 -11 12 7
24 10 28 6 25 -25 -258 -1195 -398 -1641 l-31 -98 19 -36 c11 -19 27 -50 36
-67 9 -18 26 -68 37 -113 19 -75 19 -84 5 -127 -9 -25 -19 -47 -24 -50 -10 -6
-26 35 -40 100 -16 77 -51 175 -61 175 -5 0 -14 -11 -20 -24 -9 -20 -7 -34 15
-78 14 -29 33 -88 42 -131 14 -71 14 -87 0 -186 -16 -108 -39 -189 -70 -249
-9 -17 -16 -34 -16 -37 0 -15 159 122 159 138 1 10 12 68 26 128 19 81 23 115
15 129 -21 40 -5 110 25 110 26 0 18 73 -14 137 -35 68 -62 232 -51 310 4 26
41 172 83 323 140 505 251 976 272 1150 8 63 21 137 30 164 8 27 15 73 15 101
0 42 9 69 45 141 48 94 53 114 30 114 -8 0 -22 11 -31 25 -16 24 -15 31 9 129
29 121 47 161 69 160 12 -1 16 16 22 96 3 53 13 116 21 140 17 48 19 73 4 48
-13 -23 -35 -23 -48 -1 -7 14 -11 10 -19 -22z"/>
<path d="M11447 8905 c-5 -33 -10 -69 -12 -80 -3 -11 2 -5 11 14 8 19 14 53
12 80 l-3 46 -8 -60z"/>
<path d="M4810 8781 c0 -31 40 -71 142 -146 61 -44 154 -112 207 -150 99 -73
164 -115 175 -115 18 0 2 21 -31 41 -85 51 -299 217 -475 367 -13 11 -18 12
-18 3z"/>
<path d="M7861 8774 c0 -11 3 -14 6 -6 3 7 2 16 -1 19 -3 4 -6 -2 -5 -13z"/>
<path d="M5785 8772 c10 -10 319 -189 380 -220 17 -8 68 -41 115 -72 99 -67
110 -73 110 -65 0 12 -280 188 -405 255 -44 23 -109 58 -145 78 -36 19 -60 30
-55 24z"/>
<path d="M4943 8489 c3 -8 17 -43 32 -79 33 -80 37 -85 63 -69 16 10 24 9 50
-9 42 -31 45 -28 21 21 -14 27 -43 58 -82 87 -80 60 -92 66 -84 49z"/>
<path d="M8430 8371 c0 -7 -4 -9 -10 -6 -5 3 -10 1 -10 -4 0 -6 4 -11 9 -11
13 0 25 20 17 27 -3 4 -6 1 -6 -6z"/>
<path d="M5223 8278 c3 -7 46 -110 97 -228 124 -289 206 -491 282 -695 55
-149 63 -165 66 -132 4 41 -42 170 -175 497 -86 212 -88 233 -28 288 58 53 84
48 289 -66 98 -54 211 -125 252 -157 42 -33 83 -59 92 -58 23 3 39 -3 311
-124 128 -57 236 -102 239 -99 7 7 37 -9 -243 130 -383 190 -852 449 -1093
603 -87 56 -97 60 -89 41z"/>
<path d="M5048 8255 c-3 -3 10 -41 29 -83 19 -42 62 -142 95 -222 139 -337
119 -288 273 -680 126 -319 266 -713 345 -970 46 -150 141 -433 146 -439 10
-11 43 35 53 74 17 68 14 109 -10 131 -12 10 -29 35 -40 55 -15 30 -16 42 -7
66 10 26 8 36 -9 64 -27 44 -54 129 -55 171 -1 18 -11 49 -23 68 -13 19 -31
70 -40 113 -17 71 -17 78 -2 95 16 17 13 21 -34 68 -68 66 -83 97 -81 164 2
64 -9 114 -26 116 -7 1 -16 2 -22 3 -19 2 -85 120 -142 256 -33 77 -86 203
-119 280 -79 185 -322 679 -331 670z"/>
<path d="M7633 8018 c2 -7 1 -20 -4 -29 -15 -30 14 -43 42 -19 l24 20 -24 20
c-26 23 -45 26 -38 8z"/>
<path d="M6680 7992 c0 -4 42 -25 93 -47 50 -21 140 -62 198 -91 104 -52 107
-53 113 -31 8 30 7 50 -2 65 -5 7 -76 28 -158 46 -82 19 -166 41 -188 50 -43
18 -56 20 -56 8z"/>
<path d="M7631 7881 c-10 -6 -9 -10 3 -14 8 -3 18 -2 21 3 8 13 -9 20 -24 11z"/>
<path d="M8390 7674 c-61 -50 -304 -210 -360 -239 -72 -37 -191 -74 -302 -96
-109 -21 -113 -23 -104 -37 4 -6 21 -7 43 -2 21 5 71 16 112 25 72 17 74 17
102 -4 15 -11 30 -17 33 -12 3 5 58 34 121 65 86 42 119 64 130 85 16 31 37
43 60 35 28 -11 90 50 208 204 16 20 5 14 -43 -24z"/>
<path d="M6159 7656 c47 -57 177 -129 496 -273 141 -63 199 -113 241 -206 l27
-60 -7 -561 c-4 -309 -11 -577 -16 -596 -25 -97 -116 -180 -218 -200 -114 -21
-269 -63 -361 -97 -86 -32 -99 -35 -165 -28 -84 7 -120 -4 -142 -47 -8 -15
-18 -28 -23 -28 -24 0 -151 -140 -187 -205 -15 -28 -75 -56 -91 -43 -19 16
-64 -7 -109 -54 -36 -38 -37 -40 -8 -20 28 19 33 20 44 6 14 -16 -11 -56 -161
-259 -94 -128 -219 -325 -219 -346 0 -21 21 -7 34 24 54 131 309 457 441 566
87 71 251 181 271 181 7 0 16 5 20 11 4 7 -2 9 -17 7 -69 -9 22 70 163 143
157 80 458 158 679 174 l86 7 6 216 c4 119 7 341 8 492 0 151 3 367 7 480 4
113 5 238 2 278 l-5 74 -99 39 c-54 22 -126 52 -160 67 -33 16 -104 48 -156
72 -146 67 -332 160 -365 183 -25 17 -27 18 -16 3z"/>
<path d="M6726 7566 c20 -14 168 -82 296 -136 l68 -29 6 25 c9 35 -8 50 -79
64 -34 8 -107 29 -162 47 -55 19 -111 36 -125 39 -24 5 -25 5 -4 -10z"/>
<path d="M8005 7543 c-58 -30 -123 -56 -244 -99 -9 -3 -11 -8 -5 -14 6 -6 30
-2 64 11 82 30 270 121 270 131 0 13 -11 9 -85 -29z"/>
<path d="M7835 7265 c-17 -7 -71 -21 -121 -30 l-90 -16 -12 -151 c-7 -82 -10
-153 -7 -158 2 -4 9 -297 15 -651 13 -790 12 -754 34 -754 17 0 18 12 19 120
1 66 -2 284 -7 485 -10 474 4 1005 29 1029 15 15 17 15 29 -2 20 -26 25 -165
31 -852 3 -346 8 -652 11 -680 l5 -50 82 -34 c45 -19 114 -49 152 -67 39 -17
102 -45 140 -62 352 -152 566 -247 670 -299 125 -62 150 -80 135 -98 -14 -17
-169 32 -345 109 -71 32 -191 84 -265 116 -74 32 -193 86 -264 119 -71 34
-131 60 -133 57 -6 -6 42 -33 222 -126 230 -119 512 -272 608 -330 89 -53 184
-96 257 -114 37 -9 62 -8 133 6 48 10 98 23 110 29 98 51 241 204 385 417 75
109 195 339 186 354 -12 18 -24 4 -69 -79 -57 -105 -113 -182 -272 -373 -118
-142 -180 -198 -259 -238 -55 -27 -89 -34 -118 -22 -36 13 -24 33 42 71 122
68 208 155 405 408 52 67 197 291 197 304 0 3 -17 34 -39 69 -21 35 -49 87
-61 116 -21 49 -23 51 -43 37 -15 -11 -24 -12 -34 -3 -17 13 -17 -1 -2 -53 10
-31 15 -37 29 -29 22 12 75 -20 83 -49 6 -24 -33 -57 -57 -48 -11 4 -14 -13
-15 -90 0 -53 -4 -106 -7 -117 -9 -28 -100 -158 -195 -276 -85 -107 -235 -246
-276 -256 -42 -11 -173 15 -221 42 -23 14 -54 43 -67 64 -21 33 -34 42 -82 55
-107 30 -131 39 -484 194 -390 172 -415 188 -468 301 -24 52 -26 68 -32 260
-4 113 -7 342 -8 510 -1 168 -6 376 -11 463 -10 157 -10 159 16 235 14 42 37
94 50 115 13 20 23 37 22 36 -2 0 -17 -7 -33 -14z"/>
<path d="M7020 7255 c-6 -8 -9 -19 -5 -24 3 -6 10 -84 15 -173 10 -162 -3
-936 -18 -1134 -10 -126 4 -183 44 -184 19 0 30 90 21 175 -12 113 -11 773 2
1063 5 134 8 249 5 256 -3 7 -16 18 -29 24 -18 8 -26 8 -35 -3z"/>
<path d="M10480 7184 c0 -8 5 -12 10 -9 6 4 8 11 5 16 -9 14 -15 11 -15 -7z"/>
<path d="M5360 6824 c0 -3 22 -76 49 -162 28 -87 77 -258 111 -382 l61 -225
62 -57 c69 -64 135 -113 142 -107 9 10 -68 214 -101 265 -44 68 -75 137 -148
329 -59 152 -176 378 -176 339z"/>
<path d="M10361 6794 c0 -11 3 -14 6 -6 3 7 2 16 -1 19 -3 4 -6 -2 -5 -13z"/>
<path d="M10050 6726 c-139 -42 -232 -103 -305 -203 -26 -35 -45 -66 -42 -69
7 -7 31 19 57 60 23 38 116 109 195 149 46 23 113 45 188 61 29 7 28 26 -1 25
-9 0 -51 -10 -92 -23z"/>
<path d="M10337 6743 c-12 -11 -8 -23 8 -23 8 0 15 7 15 15 0 16 -12 20 -23 8z"/>
<path d="M10722 6545 c-14 -31 -16 -53 -3 -39 9 9 24 64 18 64 -2 0 -9 -11
-15 -25z"/>
<path d="M10149 6512 c-87 -23 -156 -72 -207 -146 -38 -57 -82 -145 -82 -167
0 -23 18 -6 28 27 20 66 73 130 130 158 42 21 57 24 73 15 32 -16 19 -40 -42
-75 -68 -40 -101 -96 -122 -207 -12 -66 -12 -88 0 -149 16 -85 60 -166 104
-192 35 -20 34 -17 -12 47 -34 47 -43 85 -30 120 16 42 38 32 67 -28 29 -63
73 -98 151 -121 48 -14 57 -13 135 6 45 12 107 35 136 52 64 36 89 79 112 197
15 73 15 90 3 143 -15 65 -58 157 -105 226 -34 50 -98 86 -183 101 -73 14 -76
14 -156 -7z m96 -82 c10 -11 29 -20 43 -20 36 0 141 -29 168 -47 33 -21 71
-106 83 -181 22 -138 -32 -253 -144 -308 -46 -22 -65 -26 -113 -22 -171 14
-282 120 -282 269 0 71 13 94 98 179 62 61 76 80 68 93 -7 12 -5 21 8 36 24
26 48 27 71 1z"/>
<path d="M10829 5697 c-68 -77 -244 -190 -357 -228 -59 -20 -63 -23 -98 -87
-77 -137 -362 -572 -486 -740 -37 -50 -68 -96 -68 -100 0 -5 -9 -17 -20 -27
-29 -26 -25 -8 21 90 45 96 138 248 261 425 95 137 248 379 248 391 0 19 -20
7 -35 -20 -8 -17 -37 -56 -63 -88 -62 -75 -96 -126 -162 -243 -174 -309 -385
-613 -525 -757 -44 -46 -77 -83 -74 -83 3 0 24 13 47 30 22 16 81 52 130 80
57 32 93 60 101 76 18 39 127 170 164 196 17 13 37 22 43 20 6 -1 30 41 53 95
24 55 87 165 144 252 57 86 125 192 152 235 60 97 158 196 250 255 196 123
305 213 318 259 3 12 4 22 4 22 -1 0 -23 -24 -48 -53z"/>
<path d="M6800 5652 c-139 -25 -305 -60 -333 -71 -16 -6 -25 -16 -22 -21 4 -6
10 -8 15 -5 20 12 167 35 318 50 86 9 161 20 166 25 6 6 -2 14 -20 20 -45 17
-45 17 -124 2z"/>
<path d="M7023 5654 c-18 -8 -4 -34 17 -34 25 0 36 20 19 31 -15 10 -18 10
-36 3z"/>
<path d="M7765 5480 c3 -5 13 -10 21 -10 8 0 12 5 9 10 -3 6 -13 10 -21 10 -8
0 -12 -4 -9 -10z"/>
<path d="M7163 5175 c-8 -54 -8 -100 -2 -140 14 -87 15 -87 27 -5 8 56 7 94
-2 150 l-12 75 -11 -80z"/>
<path d="M5501 5162 c-42 -33 -187 -226 -264 -349 -151 -244 -272 -549 -332
-837 -14 -67 -39 -156 -56 -199 -28 -72 -29 -81 -19 -140 6 -34 16 -111 23
-170 12 -102 12 -109 -5 -121 -16 -12 -17 -18 -7 -64 7 -28 15 -49 19 -47 13
8 36 -21 59 -75 81 -190 156 -329 211 -390 32 -36 31 -26 -2 22 -36 52 -14 76
39 41 32 -21 33 -22 -55 102 -87 122 -117 182 -104 209 6 14 5 33 -4 59 -8 21
-20 77 -29 124 -8 47 -21 94 -30 103 -9 10 -22 63 -32 126 -13 92 -14 127 -5
224 16 157 43 283 98 452 110 337 239 579 448 843 100 125 104 132 47 87z"/>
<path d="M6320 5148 c-14 -5 -54 -16 -89 -24 -96 -23 -186 -74 -282 -161 -47
-43 -99 -90 -115 -105 -39 -35 -131 -149 -182 -225 -79 -116 -250 -477 -232
-488 5 -3 27 33 49 80 72 154 225 368 308 430 21 16 42 36 47 44 5 9 36 43 68
77 32 33 55 63 52 67 -14 13 39 77 103 124 107 79 143 100 228 134 91 36 92
36 79 48 -5 5 -20 5 -34 -1z"/>
<path d="M6908 5145 c-1 -2 -57 -8 -123 -15 -217 -20 -364 -57 -528 -134 -90
-42 -250 -134 -214 -122 11 3 31 9 45 12 15 3 75 28 134 55 190 87 429 150
510 135 50 -9 112 -57 143 -110 l26 -45 10 -648 c9 -660 17 -813 44 -893 l15
-45 -5 85 c-7 107 -24 1189 -25 1491 0 185 -3 228 -14 232 -8 3 -16 4 -18 2z"/>
<path d="M7021 5141 c-10 -7 -13 -30 -10 -97 5 -121 0 -510 -10 -789 -5 -126
-5 -318 0 -425 11 -264 12 -556 1 -576 -6 -10 -2 -44 10 -92 20 -85 16 -125
-22 -221 -11 -29 -18 -56 -16 -59 2 -4 11 -59 20 -122 21 -153 9 -206 -52
-237 -2 -1 1 -10 7 -21 7 -13 18 -18 29 -15 23 6 46 -21 38 -43 -3 -9 -15 -18
-26 -21 -18 -5 -20 -14 -20 -74 0 -39 7 -85 15 -106 8 -20 15 -66 15 -105 0
-54 5 -79 26 -120 19 -38 28 -76 34 -142 5 -50 15 -109 24 -131 l15 -40 0 45
c0 25 -4 97 -8 160 -5 79 -4 131 4 167 7 29 10 55 8 57 -6 5 -26 762 -43 1611
-8 411 -9 648 -1 889 6 181 13 338 16 350 6 29 -18 159 -30 163 -5 1 -16 -1
-24 -6z"/>
<path d="M7637 5036 c-3 -7 -1 -80 4 -162 15 -222 15 -568 1 -754 -7 -91 -17
-424 -22 -740 -9 -533 -19 -720 -45 -838 -7 -27 -20 -21 -29 12 -3 14 -11 38
-18 53 -11 27 -12 26 -23 -34 -9 -45 -9 -78 -2 -120 6 -32 11 -169 11 -304 1
-221 2 -243 15 -215 10 22 16 96 21 256 7 251 3 237 92 366 30 45 46 78 42 88
-8 21 21 65 51 76 33 13 58 64 50 101 l-7 30 -16 -33 c-23 -44 -44 -42 -60 7
-18 53 -8 142 18 170 17 18 20 36 20 102 0 58 -4 84 -14 93 -26 20 -35 107
-46 405 -13 350 -13 416 -1 705 7 144 7 299 1 430 -5 113 -10 231 -10 263 0
42 -4 57 -14 57 -8 0 -16 -6 -19 -14z"/>
<path d="M7768 4994 c-7 -6 75 -48 474 -242 353 -172 508 -266 482 -292 -8 -8
-28 -6 -75 10 -68 23 -611 293 -774 385 -54 30 -99 54 -100 53 -2 -2 -7 -59
-13 -128 -7 -92 -6 -155 3 -240 7 -63 13 -110 14 -105 0 6 6 71 11 145 12 161
17 190 35 190 33 0 41 -145 21 -375 -17 -186 -39 -346 -51 -365 -4 -6 -11 -8
-16 -5 -5 4 -9 -25 -10 -67 0 -40 -4 -107 -8 -148 -4 -41 -4 -113 1 -160 5
-47 9 -145 11 -217 2 -128 2 -131 16 -95 12 29 14 85 12 267 -2 228 11 382 49
551 15 67 40 305 40 384 0 58 3 70 30 102 28 34 98 68 141 68 10 0 113 -47
229 -105 125 -62 243 -114 288 -126 102 -27 226 -88 307 -149 36 -28 73 -50
81 -50 9 0 25 -5 36 -11 35 -19 209 -59 255 -59 36 0 52 9 123 65 69 55 140
131 140 149 0 3 -33 -12 -72 -33 -89 -47 -167 -68 -197 -51 -25 13 -63 -3 -55
-23 2 -7 -5 -22 -16 -32 -26 -24 -51 -12 -63 31 -8 26 -32 40 -204 124 -107
52 -243 121 -301 154 -227 124 -553 283 -828 402 -5 3 -13 2 -16 -2z m1172
-589 c16 -8 34 -24 40 -35 8 -15 6 -21 -11 -31 -23 -12 -74 -6 -96 12 -18 16
-16 46 5 58 23 14 28 13 62 -4z"/>
<path d="M5241 4584 c0 -11 3 -14 6 -6 3 7 2 16 -1 19 -3 4 -6 -2 -5 -13z"/>
<path d="M5211 4543 c-7 -21 -15 -44 -17 -50 -3 -7 -1 -13 4 -13 13 0 41 76
32 89 -4 7 -12 -4 -19 -26z"/>
<path d="M5700 4447 c-177 -247 -262 -444 -296 -687 -18 -129 -19 -133 -43
-125 -30 9 -34 -23 -17 -125 29 -164 135 -464 190 -535 41 -53 423 -489 556
-635 58 -63 225 -245 370 -405 145 -159 341 -373 436 -475 239 -257 345 -382
339 -399 -4 -11 -3 -12 10 -1 21 17 51 -6 34 -26 -17 -20 -29 -18 -92 20 -31
19 -57 33 -57 31 0 -2 14 -29 30 -60 53 -100 90 -140 342 -364 40 -35 51 -41
63 -31 20 16 19 29 -5 83 -14 31 -27 47 -42 49 -12 2 -29 15 -37 30 -14 24
-14 28 2 46 16 18 16 20 -8 42 -14 13 -25 18 -25 12 0 -7 -11 -17 -25 -24 -31
-14 -66 7 -85 52 -11 27 -11 34 3 47 15 15 13 23 -28 98 -30 55 -48 102 -55
146 -5 35 -14 87 -19 114 -5 28 -12 160 -15 295 -9 317 -25 600 -35 619 -7 10
-11 5 -17 -20 -4 -19 -7 -36 -7 -39 20 -90 22 -181 8 -335 -16 -180 -24 -225
-40 -225 -5 0 -15 15 -22 33 -6 17 -12 24 -12 15 -1 -9 15 -53 34 -97 19 -43
35 -95 35 -115 0 -92 -129 -85 -178 10 -12 23 -22 33 -26 26 -17 -28 -138 68
-236 188 -72 87 -81 108 -55 130 13 10 19 9 37 -6 12 -11 -9 16 -47 59 -38 42
-71 77 -73 77 -1 0 2 -9 8 -19 31 -59 -36 -9 -220 164 -127 120 -578 628 -727
821 -118 152 -165 231 -152 255 5 11 16 19 23 19 7 0 71 -73 142 -162 186
-235 319 -390 531 -620 104 -112 217 -237 252 -278 93 -107 96 -110 76 -70
-25 49 -72 109 -169 214 -45 50 -134 147 -197 216 -273 298 -505 587 -561 698
l-43 85 1 113 c2 105 0 114 -17 114 -36 0 -60 92 -40 153 10 30 9 46 -8 102
-29 92 -26 148 10 257 38 112 90 219 174 353 34 55 70 115 79 133 34 66 10 48
-54 -41z m-242 -857 c7 -20 7 -32 1 -36 -6 -3 -8 -13 -4 -23 3 -9 13 -52 21
-96 8 -44 24 -104 36 -133 17 -43 18 -55 8 -68 -58 -69 -146 145 -119 289 17
98 38 123 57 67z"/>
<path d="M4782 3525 c0 -16 2 -22 5 -12 2 9 2 23 0 30 -3 6 -5 -1 -5 -18z"/>
<path d="M7406 3008 c-4 -51 -11 -250 -16 -443 -6 -192 -15 -444 -20 -560 -20
-452 -23 -588 -12 -581 5 3 13 30 17 59 10 74 30 152 60 226 l26 64 -10 241
c-6 133 -16 430 -22 661 -6 231 -12 421 -14 423 -2 2 -6 -39 -9 -90z"/>
<path d="M4870 3049 c0 -52 80 -200 195 -360 83 -115 248 -301 546 -614 47
-49 103 -109 123 -132 93 -105 541 -516 641 -588 37 -26 38 -26 15 -3 -14 14
-161 154 -327 312 -166 158 -321 309 -345 335 -24 27 -119 129 -213 228 -375
395 -532 599 -606 787 -26 65 -28 68 -29 35z"/>
<path d="M6905 2717 c-4 -18 -2 -49 3 -68 9 -31 10 -28 11 34 1 73 -5 86 -14
34z"/>
<path d="M5208 2673 c55 -77 275 -314 662 -713 406 -417 589 -612 634 -673 12
-16 59 -57 106 -92 47 -34 175 -144 285 -244 188 -172 347 -306 406 -345 28
-18 99 -42 83 -28 -5 5 -40 31 -79 57 -106 75 -330 273 -705 625 -91 85 -199
185 -240 222 -41 37 -111 112 -155 166 -44 54 -103 116 -132 138 -29 21 -57
48 -63 60 -6 11 -24 28 -39 37 -16 9 -34 29 -40 44 -7 16 -35 46 -62 68 -74
59 -540 552 -614 649 -15 20 -37 42 -48 48 -19 10 -19 9 1 -19z"/>
<path d="M6832 1688 c42 -47 88 -104 103 -127 32 -48 39 -52 24 -14 -27 73
-85 144 -159 196 -42 29 -40 26 32 -55z"/>
</g>
</svg>
